<?xml version="1.0" encoding="utf-8"?>
<!DOCTYPE svg PUBLIC "-//W3C//DTD SVG 1.0//EN" "http://www.w3.org/TR/2001/REC-SVG-20010904/DTD/svg10.dtd">
<svg version="1.0" xmlns="http://www.w3.org/2000/svg" width="602px" height="468px" viewBox="0 0 602 468" preserveAspectRatio="xMidYMid meet">
 <g fill="#fffffe">
  <path d="M0 234.11 l0 -234.11 301 0 301 0 0 234.11 0 234.11 -301 0 -301 0 0 -234.11z m343.38 157.45 c15.83 -3.50 28.11 -9.98 38.41 -20.22 8.62 -8.67 14.42 -18.76 14.53 -25.40 0.10 -7 -6.90 -13.38 -13.53 -12.28 -4.49 0.68 -8.41 4.13 -12.23 10.61 -8.05 13.74 -19.49 21.22 -34.70 22.58 -7.21 0.68 -161.47 0.63 -166.49 0 -6.53 -0.84 -10.50 -2.04 -16.51 -4.96 -11.71 -5.70 -19.49 -15.73 -22.21 -28.64 -0.99 -4.65 -1.05 -7.58 -1.05 -98.14 0 -101.90 -0.10 -98.14 2.98 -105.92 5.38 -13.48 15.21 -22 30.20 -26.13 l5.23 -1.41 86.22 0 86.22 0 4.70 1.46 c12.59 3.92 18.97 8.73 27.02 20.59 3.76 5.59 5.02 6.79 8.88 8.52 7.58 3.45 17.87 -3.08 17.04 -10.71 -0.31 -2.77 -2.61 -7.79 -5.80 -12.65 -9.46 -14.32 -25.50 -25.87 -42.17 -30.36 -9.30 -2.51 -6.69 -2.46 -95.63 -2.46 l-83.87 0 -5.85 1.20 c-15.89 3.19 -29.26 10.19 -40.29 21.11 -10.61 10.50 -16.77 21.74 -20.07 36.63 l-1.20 5.33 0 94.59 c0 105.56 -0.26 98.19 3.66 109.79 3.76 11.24 8.94 19.39 17.61 27.70 12.02 11.44 26.91 18.13 44.63 20.01 2.25 0.26 41.28 0.42 86.69 0.37 81.94 -0.10 82.62 -0.10 87.58 -1.20z m120.30 -37.47 c4.44 -1.62 8.20 -6.38 8.20 -10.50 0 -3.87 -2.56 -7.68 -6.53 -9.82 -1.99 -1.10 -2.72 -1.15 -16.46 -1.15 -13.74 0 -14.48 0.05 -16.46 1.15 -1.15 0.57 -2.72 1.78 -3.50 2.61 -1.57 1.67 -3.55 5.64 -3.55 7.21 0 1.57 1.99 5.54 3.55 7.21 1.46 1.57 3.61 2.87 5.85 3.55 2.40 0.73 26.70 0.52 28.90 -0.26z m-220 -47.87 c1.88 -0.57 4.39 -1.62 5.54 -2.30 1.20 -0.63 9.14 -8.10 17.72 -16.57 8.52 -8.47 34.44 -34.07 57.53 -56.91 27.49 -27.17 42.69 -42.59 44 -44.63 3.14 -4.81 4.29 -8.26 4.34 -13.12 0 -5.64 -1.72 -9.56 -6.01 -13.53 -6.53 -6.06 -15.05 -6.69 -22.52 -1.67 -1.31 0.89 -25.34 24.35 -53.35 52.20 l-50.95 50.53 -2.25 0 -2.25 0 -22.26 -22.16 c-12.91 -12.86 -23.20 -22.68 -24.56 -23.46 -3.61 -2.04 -8.05 -3.14 -11.08 -2.77 -4.34 0.57 -8.05 2.30 -11.13 5.07 -6.90 6.32 -7.89 15.68 -2.51 23.99 1.10 1.67 13.90 14.95 31.20 32.19 27.91 27.96 29.53 29.42 33.24 31.25 6.27 3.03 10.03 3.50 15.31 1.88z m264.42 -12.54 c4.49 -2.25 7.26 -6.43 7.26 -10.76 0 -2.82 -2.19 -7 -4.65 -8.88 -3.92 -2.98 -0.73 -2.82 -59.68 -2.82 -61.61 0 -57.85 -0.26 -62.24 4.18 -3.29 3.24 -4.44 6.79 -3.40 10.29 1.05 3.55 3.55 6.27 7.26 8.05 l3.19 1.52 54.87 -0.10 54.87 -0.16 2.51 -1.31z m-25.81 -56.75 c5.07 -1.52 9.46 -6.95 9.46 -11.65 0 -1.93 -2.19 -6.32 -3.97 -8 -0.84 -0.78 -2.56 -1.88 -3.87 -2.46 -2.30 -1.05 -3.19 -1.10 -45.46 -1.10 -42.22 0 -43.16 0.05 -45.46 1.10 -4.55 2.04 -8 6.64 -8 10.66 0 2.77 2.25 7.16 4.65 8.94 0.99 0.78 3.08 1.88 4.55 2.35 2.51 0.89 5.75 0.94 44.05 0.99 36.11 0 41.65 -0.10 44.05 -0.84z m-69.71 -57.38 c3.14 -1.46 5.54 -4.02 6.85 -7.37 0.78 -2.14 0.84 -2.82 0.26 -4.86 -1.15 -4.34 -4.02 -7.42 -8.26 -8.83 -2.30 -0.73 -3.08 -0.73 -4.81 -0.21 -4.76 1.41 -9.25 6.79 -9.14 11.03 0.16 5.02 6.32 11.18 11.44 11.44 0.57 0 2.25 -0.52 3.66 -1.20z"/>
 </g>
 <g fill="#141414">
  <path d="M167.54 393.97 c-17.72 -1.88 -32.61 -8.57 -44.63 -20.01 -8.67 -8.31 -13.85 -16.46 -17.61 -27.70 -3.92 -11.60 -3.66 -4.02 -3.66 -111.36 l0 -96.15 1.20 -5.33 c3.29 -14.89 9.46 -26.13 20.07 -36.63 11.03 -10.92 24.40 -17.92 40.29 -21.11 l5.85 -1.20 85.44 0 c90.61 0 87.90 -0.05 97.20 2.46 19.44 5.23 38.15 20.38 46.04 37.21 3.71 7.89 2.67 14.27 -2.82 18.03 -5.85 3.97 -13.22 3.76 -19.13 -0.47 -0.84 -0.57 -3.19 -3.45 -5.17 -6.43 -8.05 -11.86 -14.42 -16.67 -27.02 -20.59 l-4.70 -1.46 -84.66 0 -84.66 0 -5.23 1.41 c-15 4.13 -24.82 12.65 -30.20 26.13 -3.08 7.79 -2.98 4.18 -2.98 104.36 0 88.99 0.05 91.92 1.05 96.57 2.72 12.91 10.50 22.94 22.21 28.64 6.01 2.93 9.98 4.13 16.51 4.96 5.02 0.63 156.14 0.68 163.36 0 5.85 -0.52 12.91 -2.61 17.98 -5.28 6.17 -3.29 12.23 -9.56 16.72 -17.30 4.34 -7.37 8.15 -10.35 13.95 -10.76 6.32 -0.42 10.66 1.78 13.48 6.79 1.36 2.46 1.52 3.24 1.46 7.21 0 3.66 -0.26 5.12 -1.62 8.47 -4.86 12.23 -18.08 25.45 -32.19 32.29 -5.33 2.51 -12.54 4.96 -19.13 6.43 -4.96 1.10 -5.64 1.10 -89.15 1.20 -46.25 0.05 -86.01 -0.10 -88.26 -0.37z"/>
  <path d="M433.21 355.92 c-11.24 -3.45 -12.70 -18.19 -2.35 -23.72 1.99 -1.10 2.72 -1.15 18.03 -1.15 15.31 0 16.04 0.05 18.03 1.15 4.49 2.40 6.64 6.17 6.64 11.44 -0.05 5.59 -3.24 10.19 -8.31 12.02 -1.46 0.52 -5.64 0.68 -16.36 0.68 -7.89 -0.05 -14.95 -0.21 -15.68 -0.42z"/>
  <path d="M391.09 295.30 c-3.76 -1.78 -6.22 -4.49 -7.26 -8.10 -0.99 -3.34 -0.99 -4.81 0.10 -8.20 1.20 -3.81 4.65 -7.26 8.47 -8.47 2.56 -0.84 7.21 -0.89 58.63 -0.89 60.62 0 57.33 -0.16 61.25 2.82 0.99 0.73 2.46 2.61 3.29 4.08 1.25 2.30 1.46 3.34 1.46 6.43 -0.05 5.80 -2.40 9.77 -7.37 12.28 l-2.51 1.31 -56.44 0.16 -56.44 0.10 -3.19 -1.52z"/>
  <path d="M392.61 238.34 c-6.06 -2.09 -9.25 -6.53 -9.25 -12.86 0 -5.59 2.77 -9.88 8.05 -12.23 2.30 -1.05 3.24 -1.10 47.03 -1.10 l44.68 0 2.61 1.25 c4.76 2.25 7.53 6.58 7.58 11.86 0 4.34 -1.25 7.32 -4.13 10.09 -4.49 4.13 -2.35 3.97 -50.95 3.97 -39.82 -0.05 -43.11 -0.10 -45.62 -0.99z"/>
  <path d="M404.57 181.70 c-2.30 -0.73 -6.17 -4.23 -7.47 -6.74 -5.33 -10.45 4.96 -21.79 16.30 -17.92 8.31 2.82 10.97 14.21 4.96 21.06 -3.19 3.66 -8.99 5.17 -13.80 3.61z"/>
 </g>
 <g fill="#47b84e">
  <path d="M233.07 308.26 c-1.31 -0.26 -4.13 -1.31 -6.27 -2.35 -3.71 -1.83 -5.33 -3.29 -33.24 -31.25 -17.30 -17.24 -30.10 -30.52 -31.20 -32.19 -2.72 -4.18 -3.66 -8.05 -3.40 -13.85 0.26 -6.01 1.78 -9.46 5.91 -13.27 6.58 -5.96 17.19 -6.95 25.34 -2.30 1.36 0.78 11.65 10.61 24.56 23.46 12.23 12.18 22.58 22.16 22.94 22.16 0.37 0 23.62 -22.73 51.63 -50.53 28.01 -27.85 52.05 -51.32 53.35 -52.20 3.71 -2.51 6.79 -3.34 12.12 -3.34 6.17 0 9.46 1.20 13.53 5.02 2.09 1.88 3.50 3.81 4.55 6.06 1.36 3.03 1.52 3.76 1.46 9.04 0 6.53 -0.84 9.35 -4.34 14.68 -1.31 2.04 -16.51 17.45 -44 44.63 -23.10 22.84 -49.02 48.44 -57.53 56.91 -8.57 8.47 -16.51 15.94 -17.72 16.57 -5.07 2.93 -11.65 3.97 -17.72 2.77z"/>
 </g>
</svg>